<svg xmlns="http://www.w3.org/2000/svg" xmlns:xlink="http://www.w3.org/1999/xlink" viewBox="0 0 2863.95 2800"><defs><style>.cls-1{isolation:isolate;}.cls-2{fill:#f4f7fa;}.cls-23,.cls-3,.cls-37,.cls-4,.cls-53,.cls-69,.cls-79{opacity:0.3;}.cls-3{fill:url(#linear-gradient);}.cls-4{fill:url(#linear-gradient-2);}.cls-5{fill:url(#linear-gradient-3);}.cls-6,.cls-8{fill:#fff;}.cls-6,.cls-85{mix-blend-mode:soft-light;}.cls-7{fill:url(#linear-gradient-4);}.cls-9{fill:url(#linear-gradient-5);}.cls-10{fill:url(#linear-gradient-6);}.cls-11{fill:url(#linear-gradient-7);}.cls-12{fill:url(#linear-gradient-8);}.cls-13{fill:url(#linear-gradient-9);}.cls-14{fill:url(#linear-gradient-10);}.cls-15{fill:url(#linear-gradient-11);}.cls-16{fill:url(#linear-gradient-12);}.cls-17{fill:url(#linear-gradient-13);}.cls-18{fill:url(#linear-gradient-14);}.cls-19{fill:url(#linear-gradient-15);}.cls-20{fill:url(#linear-gradient-16);}.cls-21{fill:url(#linear-gradient-17);}.cls-22{fill:url(#linear-gradient-18);}.cls-23,.cls-30,.cls-37,.cls-45,.cls-53,.cls-64,.cls-69,.cls-79,.cls-83{mix-blend-mode:multiply;}.cls-23{fill:url(#linear-gradient-19);}.cls-24{fill:url(#linear-gradient-20);}.cls-25{fill:url(#linear-gradient-21);}.cls-26{fill:url(#linear-gradient-22);}.cls-27{fill:url(#linear-gradient-23);}.cls-28{fill:url(#linear-gradient-24);}.cls-29{fill:url(#linear-gradient-25);}.cls-30,.cls-64{opacity:0.6;}.cls-30{fill:url(#linear-gradient-26);}.cls-31{fill:url(#linear-gradient-27);}.cls-32{fill:url(#linear-gradient-28);}.cls-33{fill:url(#linear-gradient-29);}.cls-34{fill:url(#linear-gradient-30);}.cls-35{fill:url(#linear-gradient-31);}.cls-36{fill:url(#linear-gradient-32);}.cls-37{fill:url(#linear-gradient-33);}.cls-38{fill:url(#linear-gradient-34);}.cls-39{fill:url(#linear-gradient-35);}.cls-40{fill:url(#linear-gradient-36);}.cls-41{fill:url(#linear-gradient-37);}.cls-42{fill:url(#linear-gradient-38);}.cls-43{fill:url(#linear-gradient-39);}.cls-44{fill:url(#linear-gradient-40);}.cls-45{opacity:0.4;fill:url(#linear-gradient-41);}.cls-46{fill:#b7c0ce;}.cls-47{fill:url(#linear-gradient-42);}.cls-48,.cls-83{fill:#d8dee8;}.cls-49{fill:url(#linear-gradient-43);}.cls-50{fill:url(#linear-gradient-44);}.cls-51{fill:url(#linear-gradient-45);}.cls-52{fill:url(#linear-gradient-46);}.cls-53{fill:url(#linear-gradient-47);}.cls-54{fill:url(#linear-gradient-48);}.cls-55{fill:url(#linear-gradient-49);}.cls-56{fill:url(#linear-gradient-50);}.cls-57{fill:url(#linear-gradient-51);}.cls-58{fill:url(#linear-gradient-52);}.cls-59{fill:url(#linear-gradient-53);}.cls-60{fill:url(#linear-gradient-54);}.cls-61{fill:url(#linear-gradient-55);}.cls-62{fill:url(#linear-gradient-56);}.cls-63{fill:url(#linear-gradient-57);}.cls-64{fill:url(#linear-gradient-58);}.cls-65{fill:url(#linear-gradient-59);}.cls-66{fill:url(#linear-gradient-60);}.cls-67{fill:url(#linear-gradient-61);}.cls-68{fill:url(#linear-gradient-62);}.cls-69{fill:url(#linear-gradient-63);}.cls-70{fill:url(#linear-gradient-64);}.cls-71{fill:url(#linear-gradient-65);}.cls-72{fill:url(#linear-gradient-66);}.cls-73{fill:url(#linear-gradient-67);}.cls-74{fill:url(#linear-gradient-68);}.cls-75{fill:url(#linear-gradient-69);}.cls-76{fill:url(#linear-gradient-70);}.cls-77{fill:url(#linear-gradient-71);}.cls-78{fill:url(#linear-gradient-72);}.cls-79{fill:url(#linear-gradient-73);}.cls-80{fill:url(#linear-gradient-74);}.cls-81{fill:url(#linear-gradient-75);}.cls-82{fill:url(#linear-gradient-76);}.cls-83{opacity:0.2;}.cls-84{fill:url(#linear-gradient-77);}.cls-85{opacity:0.8;}.cls-86{fill:url(#linear-gradient-78);}.cls-87{fill:url(#linear-gradient-79);}.cls-88{fill:url(#linear-gradient-80);}.cls-89{fill:url(#linear-gradient-81);}</style><linearGradient id="linear-gradient" x1="1065.19" y1="1267.4" x2="2620.83" y2="1267.4" gradientUnits="userSpaceOnUse"><stop offset="0" stop-color="#e38ddd"/><stop offset="1" stop-color="#9571f6"/></linearGradient><linearGradient id="linear-gradient-2" x1="236.14" y1="705.24" x2="1098.88" y2="705.24" xlink:href="#linear-gradient"/><linearGradient id="linear-gradient-3" x1="1876.16" y1="865.52" x2="2319.41" y2="1332.79" gradientTransform="translate(-208.27)" gradientUnits="userSpaceOnUse"><stop offset="0" stop-color="#ffc444"/><stop offset="1" stop-color="#f36f56"/></linearGradient><linearGradient id="linear-gradient-4" x1="2152.42" y1="932.73" x2="2357.55" y2="1148.98" xlink:href="#linear-gradient-3"/><linearGradient id="linear-gradient-5" x1="3315.56" y1="988.71" x2="3341.83" y2="988.71" gradientTransform="matrix(-1, 0, 0, 1, 5059.01, 0)" xlink:href="#linear-gradient-3"/><linearGradient id="linear-gradient-6" x1="2046.45" y1="919.86" x2="1869.82" y2="1090" xlink:href="#linear-gradient-3"/><linearGradient id="linear-gradient-7" x1="2064.09" y1="938.02" x2="1887.07" y2="1108.55" xlink:href="#linear-gradient-3"/><linearGradient id="linear-gradient-8" x1="2081.77" y1="956.26" x2="1904.34" y2="1127.17" xlink:href="#linear-gradient-3"/><linearGradient id="linear-gradient-9" x1="2099.48" y1="974.59" x2="1921.65" y2="1145.88" xlink:href="#linear-gradient-3"/><linearGradient id="linear-gradient-10" x1="4137.19" y1="865.7" x2="4586.98" y2="1339.87" gradientTransform="matrix(-1, 0, 0, 1, 5059.01, 0)" gradientUnits="userSpaceOnUse"><stop offset="0" stop-color="#aa80f9"/><stop offset="1" stop-color="#6165d7"/></linearGradient><linearGradient id="linear-gradient-11" x1="4426.31" y1="926.94" x2="4629.65" y2="1141.3" xlink:href="#linear-gradient-10"/><linearGradient id="linear-gradient-12" x1="4316.82" y1="918.5" x2="4129.69" y2="1098.75" xlink:href="#linear-gradient-10"/><linearGradient id="linear-gradient-13" x1="4335.09" y1="936.51" x2="4148.41" y2="1116.33" xlink:href="#linear-gradient-10"/><linearGradient id="linear-gradient-14" x1="4353.34" y1="954.42" x2="4167.09" y2="1133.83" xlink:href="#linear-gradient-10"/><linearGradient id="linear-gradient-15" x1="4371.55" y1="972.26" x2="4185.74" y2="1151.25" xlink:href="#linear-gradient-10"/><linearGradient id="linear-gradient-16" x1="1291.5" y1="534.36" x2="553.32" y2="1642.75" gradientUnits="userSpaceOnUse"><stop offset="0" stop-color="#444b8c"/><stop offset="1" stop-color="#26264f"/></linearGradient><linearGradient id="linear-gradient-17" x1="177.46" y1="1677.19" x2="806.71" y2="1677.19" xlink:href="#linear-gradient-16"/><linearGradient id="linear-gradient-18" x1="439.51" y1="2117.38" x2="637.2" y2="1497.97" gradientUnits="userSpaceOnUse"><stop offset="0" stop-color="#311944"/><stop offset="1" stop-color="#a03976"/></linearGradient><linearGradient id="linear-gradient-19" x1="432.13" y1="2115.02" x2="629.81" y2="1495.62" xlink:href="#linear-gradient-18"/><linearGradient id="linear-gradient-20" x1="276.14" y1="1942.94" x2="442.15" y2="1422.79" xlink:href="#linear-gradient-18"/><linearGradient id="linear-gradient-21" x1="550.6" y1="1375.97" x2="682.39" y2="1375.97" gradientTransform="matrix(1, 0, 0, 1, 0, 0)" xlink:href="#linear-gradient-3"/><linearGradient id="linear-gradient-22" x1="1186.83" y1="1250.35" x2="1168.3" y2="1276.78" gradientTransform="translate(-297.42 -56.92) rotate(6.1)" xlink:href="#linear-gradient-10"/><linearGradient id="linear-gradient-23" x1="1153.1" y1="1292.32" x2="1188.86" y2="1218.82" gradientTransform="translate(-297.42 -56.92) rotate(6.1)" xlink:href="#linear-gradient-10"/><linearGradient id="linear-gradient-24" x1="1179.19" y1="1262.02" x2="1185.26" y2="1258.24" gradientTransform="translate(-297.42 -56.92) rotate(6.1)" gradientUnits="userSpaceOnUse"><stop offset="0" stop-color="#444b8c"/><stop offset="1" stop-color="#3e4177"/></linearGradient><linearGradient id="linear-gradient-25" x1="1184.77" y1="1242.29" x2="1166.17" y2="1264.34" gradientTransform="translate(-297.42 -56.92) rotate(6.1)" xlink:href="#linear-gradient-10"/><linearGradient id="linear-gradient-26" x1="1146.82" y1="1273.79" x2="1169.55" y2="1273.79" gradientTransform="translate(-297.42 -56.92) rotate(6.1)" gradientUnits="userSpaceOnUse"><stop offset="0" stop-color="#6165d7"/><stop offset="1" stop-color="#aa80f9"/></linearGradient><linearGradient id="linear-gradient-27" x1="-10336.21" y1="2277.03" x2="-10334.7" y2="2277.03" gradientTransform="matrix(-0.95, -0.31, -0.31, 0.95, 7328.37, 1111.78)" gradientUnits="userSpaceOnUse"><stop offset="0" stop-color="#40447e"/><stop offset="1" stop-color="#3c3b6b"/></linearGradient><linearGradient id="linear-gradient-28" x1="-5750.58" y1="222.22" x2="-5750.58" y2="221.03" gradientTransform="translate(6718.64 934.98) rotate(14.78)" xlink:href="#linear-gradient-3"/><linearGradient id="linear-gradient-29" x1="-10315.7" y1="2317.33" x2="-10314.2" y2="2317.33" xlink:href="#linear-gradient-27"/><linearGradient id="linear-gradient-30" x1="6224.17" y1="-548.3" x2="6224.17" y2="-549.52" gradientTransform="matrix(-0.95, -0.31, -0.31, 0.95, 7328.37, 1111.78)" gradientUnits="userSpaceOnUse"><stop offset="0" stop-color="#ffc444"/><stop offset="1" stop-color="#f36f56"/></linearGradient><linearGradient id="linear-gradient-31" x1="1071.6" y1="987.17" x2="1106.84" y2="914.73" gradientTransform="matrix(1.03, 0.11, -0.12, 1.09, -321.81, 128.24)" xlink:href="#linear-gradient-10"/><linearGradient id="linear-gradient-32" x1="1095.7" y1="896.99" x2="1088.02" y2="922.48" gradientTransform="matrix(1.03, 0.11, -0.12, 1.09, -321.81, 128.24)" xlink:href="#linear-gradient-10"/><linearGradient id="linear-gradient-33" x1="1095.69" y1="897.01" x2="1088.02" y2="922.49" gradientTransform="matrix(1.03, 0.11, -0.12, 1.09, -321.81, 128.24)" xlink:href="#linear-gradient-10"/><linearGradient id="linear-gradient-34" x1="1046.99" y1="1274.76" x2="1089.05" y2="1274.76" gradientTransform="translate(-297.42 -56.92) rotate(6.1)" xlink:href="#linear-gradient-10"/><linearGradient id="linear-gradient-35" x1="1051.04" y1="1282.3" x2="1017.28" y2="1301.95" gradientTransform="translate(-297.42 -56.92) rotate(6.1)" xlink:href="#linear-gradient-10"/><linearGradient id="linear-gradient-36" x1="1027.08" y1="1274.96" x2="1073.29" y2="1274.96" gradientTransform="translate(-297.42 -56.92) rotate(6.1)" xlink:href="#linear-gradient-10"/><linearGradient id="linear-gradient-37" x1="1027.09" y1="1274.67" x2="1054.85" y2="1274.67" gradientTransform="translate(-297.42 -56.92) rotate(6.1)" xlink:href="#linear-gradient-10"/><linearGradient id="linear-gradient-38" x1="2251.32" y1="598.72" x2="1576.81" y2="1611.5" xlink:href="#linear-gradient-16"/><linearGradient id="linear-gradient-39" x1="1233.37" y1="1642.97" x2="1808.35" y2="1642.97" xlink:href="#linear-gradient-16"/><linearGradient id="linear-gradient-40" x1="812.04" y1="1999.58" x2="988.46" y2="1446.78" gradientTransform="translate(672.12)" gradientUnits="userSpaceOnUse"><stop offset="0" stop-color="#ff9085"/><stop offset="1" stop-color="#fb6fbb"/></linearGradient><linearGradient id="linear-gradient-41" x1="805.45" y1="1997.48" x2="981.88" y2="1444.68" xlink:href="#linear-gradient-40"/><linearGradient id="linear-gradient-42" x1="725.57" y1="2193.29" x2="2690.56" y2="2193.29" gradientUnits="userSpaceOnUse"><stop offset="0.49" stop-color="#ebeff2"/><stop offset="1" stop-color="#fff"/></linearGradient><linearGradient id="linear-gradient-43" x1="433.55" y1="1822.91" x2="974.22" y2="1822.91" gradientTransform="matrix(1, 0, 0, 1, 0, 0)" xlink:href="#linear-gradient-10"/><linearGradient id="linear-gradient-44" x1="433.3" y1="1806.22" x2="973.98" y2="1806.22" gradientTransform="matrix(1, 0, 0, 1, 0, 0)" xlink:href="#linear-gradient-27"/><linearGradient id="linear-gradient-45" x1="-328.55" y1="1610.53" x2="194.54" y2="1610.53" gradientTransform="matrix(-1, 0, 0, 1, 909.91, 0)" xlink:href="#linear-gradient-10"/><linearGradient id="linear-gradient-46" x1="66.58" y1="1402.1" x2="-277.29" y2="1924.65" gradientTransform="matrix(-1, 0, 0, 1, 909.91, 0)" xlink:href="#linear-gradient-10"/><linearGradient id="linear-gradient-47" x1="-324.66" y1="1736.27" x2="180.92" y2="1736.27" gradientTransform="matrix(-1, 0, 0, 1, 909.91, 0)" xlink:href="#linear-gradient-10"/><linearGradient id="linear-gradient-48" x1="6.25" y1="1791.85" x2="-158.07" y2="1890.44" gradientTransform="matrix(-1, 0, 0, 1, 909.91, 0)" xlink:href="#linear-gradient-10"/><linearGradient id="linear-gradient-49" x1="973.98" y1="1737.06" x2="1118.62" y2="1737.06" gradientTransform="matrix(1, 0, 0, 1, 0, 0)" xlink:href="#linear-gradient-10"/><linearGradient id="linear-gradient-50" x1="-89.21" y1="1629.13" x2="-189.47" y2="2051.28" gradientTransform="matrix(-1, 0, 0, 1, 909.91, 0)" xlink:href="#linear-gradient-10"/><linearGradient id="linear-gradient-51" x1="383.2" y1="1804.32" x2="506.55" y2="1804.32" gradientTransform="matrix(1, 0, 0, 1, 0, 0)" xlink:href="#linear-gradient-3"/><linearGradient id="linear-gradient-52" x1="666.23" y1="1843.9" x2="814.39" y2="1379.69" xlink:href="#linear-gradient-40"/><linearGradient id="linear-gradient-53" x1="911.18" y1="1337.9" x2="1028.8" y2="1337.9" gradientTransform="translate(672.12)" xlink:href="#linear-gradient-3"/><linearGradient id="linear-gradient-54" x1="399.57" y1="1390.51" x2="384.39" y2="1412.16" gradientTransform="translate(1087.68 -28.17) rotate(-11.5)" xlink:href="#linear-gradient-10"/><linearGradient id="linear-gradient-55" x1="371.95" y1="1424.81" x2="401.36" y2="1364.36" gradientTransform="translate(1087.68 -28.17) rotate(-11.5)" xlink:href="#linear-gradient-10"/><linearGradient id="linear-gradient-56" x1="393.42" y1="1399.88" x2="398.41" y2="1396.76" gradientTransform="translate(1360.94 -131.75)" xlink:href="#linear-gradient-24"/><linearGradient id="linear-gradient-57" x1="397.97" y1="1383.68" x2="382.7" y2="1401.76" gradientTransform="matrix(1, 0, 0, 1, 1361.01, -131.41)" xlink:href="#linear-gradient-10"/><linearGradient id="linear-gradient-58" x1="366.89" y1="1409.51" x2="385.43" y2="1409.51" gradientTransform="translate(1087.68 -28.17) rotate(-11.5)" xlink:href="#linear-gradient-26"/><linearGradient id="linear-gradient-59" x1="1059.72" y1="1394.47" x2="995.79" y2="1232.11" gradientTransform="translate(672.12)" gradientUnits="userSpaceOnUse"><stop offset="0" stop-color="#311944"/><stop offset="1" stop-color="#6b3976"/></linearGradient><linearGradient id="linear-gradient-60" x1="4779.23" y1="-520.64" x2="4776.4" y2="-292.13" gradientTransform="translate(-3029.81 2161.16) rotate(-4.32)" xlink:href="#linear-gradient-3"/><linearGradient id="linear-gradient-61" x1="326.3" y1="1108.94" x2="354.81" y2="1050.33" gradientTransform="matrix(1.01, -0.21, 0.22, 1.08, 1119.7, 156.66)" xlink:href="#linear-gradient-10"/><linearGradient id="linear-gradient-62" x1="346.21" y1="1036.11" x2="340.07" y2="1056.5" gradientTransform="matrix(1.01, -0.21, 0.22, 1.08, 1119.7, 156.66)" xlink:href="#linear-gradient-10"/><linearGradient id="linear-gradient-63" x1="346.24" y1="1036.01" x2="340.08" y2="1056.46" gradientTransform="matrix(1.01, -0.21, 0.22, 1.08, 1119.7, 156.66)" xlink:href="#linear-gradient-10"/><linearGradient id="linear-gradient-64" x1="285.17" y1="1408.95" x2="319.65" y2="1408.95" gradientTransform="matrix(1, 0, 0, 1, 1362.38, -116.7)" xlink:href="#linear-gradient-10"/><linearGradient id="linear-gradient-65" x1="288.5" y1="1415.07" x2="260.82" y2="1431.17" gradientTransform="translate(1087.68 -28.17) rotate(-11.5)" xlink:href="#linear-gradient-10"/><linearGradient id="linear-gradient-66" x1="268.83" y1="1408.95" x2="306.74" y2="1408.95" gradientTransform="translate(1087.68 -28.17) rotate(-11.5)" xlink:href="#linear-gradient-10"/><linearGradient id="linear-gradient-67" x1="268.83" y1="1408.46" x2="291.63" y2="1408.46" gradientTransform="translate(1087.68 -28.17) rotate(-11.5)" xlink:href="#linear-gradient-10"/><linearGradient id="linear-gradient-68" x1="815.94" y1="1740.44" x2="1300.82" y2="1740.44" gradientTransform="translate(672.12)" xlink:href="#linear-gradient-10"/><linearGradient id="linear-gradient-69" x1="813.35" y1="1725.55" x2="1295.89" y2="1725.55" gradientTransform="translate(672.12)" xlink:href="#linear-gradient-27"/><linearGradient id="linear-gradient-70" x1="761.78" y1="1720.18" x2="871.87" y2="1720.18" gradientTransform="translate(672.12)" xlink:href="#linear-gradient-3"/><linearGradient id="linear-gradient-71" x1="-615.41" y1="1546.98" x2="-148.32" y2="1546.98" gradientTransform="matrix(-1, 0, 0, 1, 1582.04, 0)" xlink:href="#linear-gradient-10"/><linearGradient id="linear-gradient-72" x1="-263.08" y1="1361.2" x2="-569.81" y2="1827.32" gradientTransform="matrix(-1, 0, 0, 1, 1582.04, 0)" xlink:href="#linear-gradient-10"/><linearGradient id="linear-gradient-73" x1="-611.68" y1="1659.2" x2="-161.09" y2="1659.2" gradientTransform="matrix(-1, 0, 0, 1, 1582.04, 0)" xlink:href="#linear-gradient-10"/><linearGradient id="linear-gradient-74" x1="-316.36" y1="1709.06" x2="-463.02" y2="1797.05" gradientTransform="matrix(-1, 0, 0, 1, 1582.04, 0)" xlink:href="#linear-gradient-10"/><linearGradient id="linear-gradient-75" x1="1961.15" y1="1660.16" x2="2090.24" y2="1660.16" gradientTransform="matrix(1, 0, 0, 1, 0, 0)" xlink:href="#linear-gradient-10"/><linearGradient id="linear-gradient-76" x1="-401.56" y1="1563.84" x2="-491.04" y2="1940.59" gradientTransform="matrix(-1, 0, 0, 1, 1582.04, 0)" xlink:href="#linear-gradient-10"/><linearGradient id="linear-gradient-77" x1="-1083.9" y1="2519.83" x2="-769.19" y2="2519.83" gradientTransform="matrix(-0.97, 0.22, 0.22, 0.97, 800.58, -108.16)" xlink:href="#linear-gradient-40"/><linearGradient id="linear-gradient-78" x1="-1474.14" y1="2380.85" x2="-866.3" y2="2380.85" gradientTransform="matrix(-0.97, 0.22, 0.22, 0.97, 800.58, -108.16)" xlink:href="#linear-gradient-3"/><linearGradient id="linear-gradient-79" x1="-1456.73" y1="3308.09" x2="-846.97" y2="3308.09" gradientTransform="matrix(-0.85, 0.53, 0.53, 0.85, -110.3, -0.59)" xlink:href="#linear-gradient"/><linearGradient id="linear-gradient-80" x1="1696.62" y1="2218.1" x2="1526.44" y2="1875.91" gradientTransform="matrix(1, 0, 0, 1, 0, 0)" xlink:href="#linear-gradient-10"/><linearGradient id="linear-gradient-81" x1="1693.23" y1="2232.09" x2="1615.39" y2="2075.57" gradientTransform="matrix(1, 0, 0, 1, 0, 0)" xlink:href="#linear-gradient-10"/></defs><title>Ресурс 1</title><g class="cls-1"><g id="Слой_2" data-name="Слой 2"><g id="Illustration"><path class="cls-2" d="M2820.61,1169.19c-56.44-369.38-101.74-624.66-305.52-764.54C2171.35,168.7,1787.47,551.73,1300.56,294.71,1060.82,168.16,1051.83,21.44,848.8,2,489.58-32.49,195.4,396.2,169.91,433,15,656.34-36.74,928.71,26.06,1188.39c40.78,168.66,68.35,343.21,60.78,516.52C73.68,2006.54,81.25,2288.09,374,2468c261.36,160.62,590.3,302.27,904.11,327.08,213.26,16.87,452.42-10.42,658-65.94C2983.55,2446.14,2898.2,1677.07,2820.61,1169.19Z"/><path class="cls-3" d="M2582.56,1220l-84.65-7a719.71,719.71,0,0,0-21.62-117.41l76.9-38.75c20.65-10.4,29.31-36.59,19.34-58.52L2510,860.73c-10-22.07-35-31.51-55.73-21.06L2377,878.59a695.15,695.15,0,0,0-74.68-92.42l48-74.85c13-20.19,7.89-47.93-11.31-62l-120.45-88c-19.32-14.12-45.5-9.1-58.46,11.2l-48,75.16A655.15,655.15,0,0,0,2003,606.12l5.5-91.25c1.49-24.72-16.21-46.48-39.56-48.59l-146.22-13.17c-23.42-2.11-43.56,16.29-45,41.08l-5.11,90.57a621.74,621.74,0,0,0-114.22,21.78l-38.64-82.21c-10.58-22.53-36.21-32.22-57.23-21.63L1431.1,568.92c-21,10.59-29.39,37.41-18.71,59.88l38.68,81.39a647,647,0,0,0-87.68,79.43l-71.22-50.8c-19.79-14.11-46.22-9.05-59,11.31l-79.93,127.11c-12.76,20.29-7,48.09,12.75,62.09l70.91,50.16a706.78,706.78,0,0,0-36.25,115.71l-84-7c-23.47-2-43.4,16.27-44.51,40.68l-6.92,152.19c-1.11,24.27,17,45.46,40.34,47.34l83,6.7a719.31,719.31,0,0,0,24.9,119.65L1139.61,1502c-20.74,10.45-28.89,36.57-18.22,58.32l66.54,135.55c10.61,21.6,35.93,30.67,56.58,20.26l73.54-37.05a693.06,693.06,0,0,0,77.71,91.26L1351,1840.46c-12.57,19.71-7.06,46.53,12.3,59.9L1484,1983.72a40.54,40.54,0,0,0,57.6-11.42L1586.7,1902A653.12,653.12,0,0,0,1696,1940.89l-4.79,84.66c-1.33,23.54,16.1,44,38.93,45.67l142.5,10.53c22.75,1.68,42.33-16,43.75-39.47l5.11-84.84a622.75,622.75,0,0,0,111.59-22.7l36.6,77c10.07,21.18,34.75,30,55.12,19.75l127.44-64.2c20.38-10.27,28.82-35.79,18.84-57l-36.56-77.81a646.91,646.91,0,0,0,85.26-77l68.95,48.78c18.8,13.3,44.33,8.23,57.05-11.32l79.65-122.45c12.76-19.61,7.88-46.38-10.91-59.78l-69.63-49.67a703.94,703.94,0,0,0,36.8-111.61l84.21,6.79c22.7,1.83,42.47-16,44.17-39.85l10.64-149.54C2622.42,1242.88,2605.34,1221.89,2582.56,1220ZM2095,1805.83c-274.76,138.43-609.94,17.63-749.82-272.23C1204,1241,1315.06,887.72,1594.49,747s617.54-13.79,754,281.14C2483.76,1320.29,2369.73,1667.41,2095,1805.83Z"/><path class="cls-4" d="M1077.65,679l-46.94-3.9a399,399,0,0,0-12-65.11l42.65-21.49c11.45-5.77,16.25-20.29,10.73-32.45l-34.69-76.29c-5.56-12.24-19.4-17.48-30.91-11.68l-42.84,21.58a385.87,385.87,0,0,0-41.42-51.25l26.62-41.51c7.18-11.2,4.38-26.59-6.27-34.37l-66.8-48.82a22.35,22.35,0,0,0-32.42,6.21l-26.6,41.69a363.09,363.09,0,0,0-60.55-23.06l3-50.6c.83-13.71-9-25.78-21.94-26.95l-81.09-7.3c-13-1.18-24.15,9-24.93,22.78l-2.84,50.23a344.59,344.59,0,0,0-63.34,12.08l-21.43-45.6c-5.87-12.49-20.08-17.86-31.74-12l-72.89,36.72c-11.66,5.87-16.3,20.75-10.37,33.21l21.45,45.14a358.46,358.46,0,0,0-48.63,44L362,412.1a22.63,22.63,0,0,0-32.73,6.27L285,488.86c-7.07,11.26-3.9,26.67,7.07,34.44l39.33,27.82a390,390,0,0,0-20.1,64.17l-46.57-3.87c-13-1.08-24.07,9-24.69,22.56l-3.83,84.41c-.61,13.45,9.41,25.2,22.37,26.25l46,3.71a399.27,399.27,0,0,0,13.8,66.36l-41,20.64c-11.5,5.8-16,20.28-10.1,32.34l36.9,75.18c5.88,12,19.93,17,31.38,11.24l40.78-20.55a384.43,384.43,0,0,0,43.1,50.61l-24.81,38.88a24.62,24.62,0,0,0,6.82,33.22l66.95,46.23a22.47,22.47,0,0,0,31.94-6.33l25-39A362.65,362.65,0,0,0,586,1078.75l-2.65,47c-.74,13.06,8.93,24.39,21.59,25.33l79,5.84c12.61.93,23.47-8.87,24.26-21.89l2.83-47a345.88,345.88,0,0,0,61.89-12.59l20.3,42.71c5.58,11.75,19.27,16.65,30.57,11l70.67-35.61c11.31-5.69,16-19.84,10.45-31.61l-20.27-43.15A359.22,359.22,0,0,0,931.92,976l38.24,27a22.2,22.2,0,0,0,31.64-6.28L1046,928.81c7.08-10.87,4.37-25.72-6-33.15l-38.61-27.55a390.09,390.09,0,0,0,20.4-61.9l46.71,3.77c12.59,1,23.55-8.87,24.49-22.1l5.91-82.94C1099.76,691.64,1090.29,680,1077.65,679Zm-270.4,324.9c-152.38,76.77-338.27,9.78-415.84-151-78.3-162.25-16.69-358.19,138.27-436.27S872.17,409,947.86,572.52C1022.86,734.58,959.63,927.08,807.25,1003.85Z"/><polygon class="cls-5" points="1984.87 1033.62 1586 1025.08 1586 946.64 1984.87 953.8 1984.87 1033.62"/><polygon class="cls-6" points="1600.42 1011.03 1600.42 961.26 1969.96 968.12 1969.96 1018.71 1600.42 1011.03"/><polygon class="cls-7" points="2064.74 1035.29 1905.56 1031.88 1961.02 918.33 2064.74 920.03 2064.74 1035.29"/><polygon class="cls-6" points="1929.02 1017.81 1970.44 933.07 2049.72 934.42 2049.72 1020.32 1929.02 1017.81"/><polygon class="cls-8" points="1637.03 1004.24 1611.01 1003.71 1611.01 969 1637.03 969.49 1637.03 1004.24"/><polygon class="cls-8" points="1672.39 1004.96 1646.29 1004.43 1646.29 969.66 1672.39 970.16 1672.39 1004.96"/><polygon class="cls-8" points="1707.87 1005.69 1681.68 1005.15 1681.68 970.33 1707.87 970.83 1707.87 1005.69"/><polygon class="cls-9" points="1743.45 1006.41 1717.18 1005.88 1717.18 971 1743.45 971.5 1743.45 1006.41"/><polygon class="cls-10" points="1779.15 1007.14 1752.8 1006.61 1752.8 971.68 1779.15 972.18 1779.15 1007.14"/><polygon class="cls-11" points="1814.96 1007.88 1788.53 1007.34 1788.53 972.35 1814.96 972.85 1814.96 1007.88"/><polygon class="cls-12" points="1850.88 1008.61 1824.37 1008.07 1824.37 973.03 1850.88 973.53 1850.88 1008.61"/><polygon class="cls-13" points="1886.92 1009.35 1860.32 1008.8 1860.32 973.71 1886.92 974.21 1886.92 1009.35"/><polygon class="cls-14" points="591.4 1027.97 1012.24 1036.98 1012.24 954.98 591.4 947.43 591.4 1027.97"/><polygon class="cls-6" points="996.5 1021.66 996.5 969.69 606.61 962.45 606.61 1013.56 996.5 1021.66"/><polygon class="cls-15" points="510.63 1026.2 672.73 1029.67 615.74 912.43 510.63 910.7 510.63 1026.2"/><polygon class="cls-6" points="648.55 1014.39 606.11 927.01 525.74 925.64 525.74 1011.84 648.55 1014.39"/><polygon class="cls-8" points="956.71 1012.97 984.97 1013.55 984.97 977.34 956.71 976.8 956.71 1012.97"/><polygon class="cls-8" points="918.53 1012.19 946.69 1012.77 946.69 976.62 918.53 976.08 918.53 1012.19"/><polygon class="cls-8" points="880.47 1011.41 908.54 1011.99 908.54 975.89 880.47 975.36 880.47 1011.41"/><polygon class="cls-8" points="842.53 1010.64 870.52 1011.21 870.52 975.18 842.53 974.65 842.53 1010.64"/><polygon class="cls-16" points="804.72 1009.87 832.61 1010.44 832.61 974.46 804.72 973.93 804.72 1009.87"/><polygon class="cls-17" points="767.03 1009.1 794.83 1009.66 794.83 973.75 767.03 973.22 767.03 1009.1"/><polygon class="cls-18" points="729.46 1008.33 757.17 1008.89 757.17 973.03 729.46 972.51 729.46 1008.33"/><polygon class="cls-19" points="692.01 1007.56 719.63 1008.13 719.63 972.32 692.01 971.8 692.01 1007.56"/><path class="cls-20" d="M731.82,1957.07a222.91,222.91,0,0,1,9.29-163.15l27.16-60.09a116.67,116.67,0,0,0,10.26-48.93v-33.76a43,43,0,0,0-19.18-36.32L645.48,1539.6a165.12,165.12,0,0,1-68-92.22c-10.9-37.82-26.23-88-42.62-131.32-19.32-51.07-67-86-122.1-89.49l-38.69-2.47c-76.59-4.88-144.13,51.4-153,127.1-8.37,71.46-22.11,153.73-43.8,200.84a237.28,237.28,0,0,0-17.76,143.66c29,153.5,69.7,365.47,45.2,417.67,352.45,38.7,579.16,1.54,579.16,1.54ZM353.66,1587.76l-68.92.8s8.32-46.79,17.2-89.92,42.81-58.39,46.15-58.44l12.81-.2Zm93.23-.83-25.73-145.21c54.3,1.37,95.82,150,97.51,150.49S446.89,1586.93,446.89,1586.93Z"/><path class="cls-21" d="M754.56,1957a222.9,222.9,0,0,1,9.31-163.24l27.36-60.12a116.71,116.71,0,0,0,10.45-48.94V1651a43.22,43.22,0,0,0-19.38-36.36l-114.09-75.28a165.32,165.32,0,0,1-68.1-92.27c-10.9-37.85-26.28-88.11-42.68-131.41-19.36-51.1-67.08-86-122.27-89.54l-38.74-2.47c-76.68-4.89-144.31,51.42-153.19,127.17-8.38,71.51-22.14,153.83-43.85,201a237.32,237.32,0,0,0-17.78,143.74c29,153.59,69.78,365.69,45.25,417.92,352.88,38.72,579.86,1.54,579.86,1.54ZM376,1587.51l-69,.79s8.34-46.81,17.23-90,42.86-58.43,46.2-58.48l12.83-.2Zm93.34-.84-25.76-145.3c54.36,1.38,95.94,150.05,97.63,150.58S469.29,1586.67,469.29,1586.67Z"/><path class="cls-22" d="M433.35,1899.46c-26.8,11.71-63.1,27.83-112,26.36-31.15-.94-48.17-1.45-59.31-12.08-37.1-35.42,27.45-151.52,158.07-382.27,41.77-73.79,69.24-118.23,124.34-139.09,62.56-23.69,122.73-2.59,144.83,5.16C704.85,1403,831.47,1449.69,855.1,1570c19.31,98.29-37.93,206.2-142.78,257l-18.67-26.36c9.59-15.44,28-49.88,28.56-96.65.56-50.12-19.5-109.45-36.25-108.73-26.69,1.15,4.76,152.71-86.76,233.94C584.38,1842.31,593.64,1829.4,433.35,1899.46Z"/><path class="cls-23" d="M807.87,1642.46c-5.75-40.14-23.64-165-101-195.5-60.69-24-120.71,24.76-149.37-5.49-11.6-12.24-12.55-31.6-9.77-50.26-1.09.39-2.17.75-3.26,1.17-55.1,20.86-82.57,65.3-124.34,139.09C289.47,1762.22,224.92,1878.32,262,1913.74c11.14,10.63,28.16,11.14,59.31,12.08,48.92,1.47,85.22-14.65,112-26.36,160.29-70.06,151-57.15,165.85-70.29,91.52-81.23,60.07-232.79,86.76-233.94,16.75-.72,36.81,58.61,36.25,108.73-.53,46.77-19,81.21-28.56,96.65L712.32,1827a270.58,270.58,0,0,0,95.49-76.66A381.15,381.15,0,0,0,807.87,1642.46Z"/><path class="cls-24" d="M398.74,1805.07l17.67-7.31s-98.83-100,86.55-304.08c0,0,91.32-117,45.89-106.85-58.86,13.16-155.1,41.3-243.91,162.51S267.06,1776.63,398.74,1805.07Z"/><path class="cls-25" d="M661.72,1395.38a15.59,15.59,0,0,1-3.09-21.26l14.15-20L658,1326.88l-51.92,38.87a106.13,106.13,0,0,1-46.88,19.84L550.6,1387s50,27.14,75.67,35.88,56.12-11.24,56.12-11.24Z"/><path class="cls-26" d="M729,1295.49l3.75.33c15.45,1.35,26.17,19.12,23.94,39.68l-.12,1.16c-2.23,20.56-16.57,36.11-32,34.73l-3.75-.34c-7.79-.69-12.26-18.16-10-39S721.22,1294.81,729,1295.49Z"/><path class="cls-27" d="M702,1331.25c-2.47,22.83,4.53,42.13,16,43.16s23.15-16.63,25.62-39.48-5.15-42.22-16.66-43.22S704.5,1308.42,702,1331.25Z"/><polygon class="cls-28" points="718.66 1374.46 714.27 1374.07 723.23 1291.38 727.62 1291.76 718.66 1374.46"/><path class="cls-29" d="M697.94,1330.89c-2.47,22.82,4.83,42.15,16.33,43.18s22.84-16.65,25.31-39.5-4.85-42.19-16.35-43.19S700.41,1308.07,697.94,1330.89Z"/><path class="cls-30" d="M707.43,1331.73c-1.35,12.41,2.63,22.92,8.88,23.48s12.42-9.06,13.76-21.48-2.63-22.93-8.89-23.48S708.77,1319.32,707.43,1331.73Z"/><path class="cls-31" d="M720.64,1327.78c14.53-9.52,22.89-31.87,16.12-50-5.82-15.59-21-22.53-30-26.69-26.16-12-64.06-12.33-84.08,7.83-11.83,11.92-6.76,46.56-6.2,52.67.64,6.92,4.81,10.62,7.77,16.69,4.1,8.41,10.47,21.75,20.74,43.94a112.19,112.19,0,0,1,12.2-15.64c2-2.17,10.1-10.6,20-16.51C697,1328.17,706.9,1336.79,720.64,1327.78Z"/><path class="cls-32" d="M627,1350.38s8.13,34.16,44.29,44c32.54,8.86,60.88-58.53,45.46-80-5.14-7.17-18.08-13.75-30.16-14.45-7.12-.41-10.23,1.47-21.84.57-10.7-.82-13.12-2.8-16.91-1.38-4.74,1.78-10,8.28-10.63,30.44-4-7.94-10.48-12.65-16.4-12a11.29,11.29,0,0,0-5.55,2.56C608.18,1326.41,612.15,1338.89,627,1350.38Z"/><path class="cls-33" d="M647.79,1294.51c1.15,1.61-5.39,5.57-8.4,13.25-5.83,14.91,3.8,38.41,19.45,45.43,9.27,4.15,13.81-.54,30.24,3.21a79.52,79.52,0,0,1,22.77,9.13c-.7,18.36-11.1,33.37-25.29,37.12-15.25,4-29.35-6.38-35.24-10.73-3.94-2.91-16.55-12.19-19.65-27.22-3.24-15.66,7-21,1.18-32.79-2.93-6-8.11-9.85-10.86-20.39a43,43,0,0,1-1.22-6.88C631.76,1299,646.12,1292.17,647.79,1294.51Z"/><path class="cls-34" d="M698.15,1367.79s-8.07,1.13-19.74-3.54c-.56-.22-1.25-.28-1.43,0-.64,1,5.31,8.44,13,8.92,5.45.34,10.9-2.9,10.63-4.28C700.48,1368.29,699.33,1368,698.15,1367.79Z"/><path class="cls-35" d="M633,1299.81l-4.74-.46,1.68-14.49c2.89-25,22.66-43.94,45-43.15l24,.85c12.55.45,23.87,6.46,31.86,16.94s11.56,24,10,38l-1.26,11.62-4.77-.42,1.26-11.62c1.36-12.55-1.83-24.64-9-34s-17.28-14.76-28.51-15.16l-24-.85c-19.84-.71-37.38,16.09-39.94,38.25Z"/><path class="cls-36" d="M729.9,1271.83a6.65,6.65,0,0,1-5-3.07c-6.24-9.45-16-15.1-26.65-15.48l-24-.86a31.67,31.67,0,0,0-23.07,9.21,6.61,6.61,0,0,1-10.09-.67,8.78,8.78,0,0,1,1-11.34c9.37-9,21.16-13.69,33.22-13.26l24,.84c15,.53,28.56,8.42,37.3,21.65a8.82,8.82,0,0,1-1.69,11.3A6.86,6.86,0,0,1,729.9,1271.83Z"/><path class="cls-37" d="M721.59,1254.64c-17-7.25-16.48-12.53-25.61-13.72-17.07-2.22-26,15.28-42.37,11.45a25,25,0,0,1-9.45-4.58c-.68.59-1.36,1.2-2,1.83a8.78,8.78,0,0,0-1,11.34,6.61,6.61,0,0,0,10.09.67,31.67,31.67,0,0,1,23.07-9.21l24,.86c10.69.38,20.41,6,26.65,15.48a6.65,6.65,0,0,0,5,3.07,6.86,6.86,0,0,0,5.05-1.68,8.87,8.87,0,0,0,2.26-10.28A101,101,0,0,1,721.59,1254.64Z"/><path class="cls-38" d="M650,1326c-2.49,23-13.9,40.88-25.47,39.85s-18.92-20.53-16.43-43.55,13.87-40.87,25.44-39.86S652.44,1302.91,650,1326Z"/><path class="cls-39" d="M645.83,1325.6c-2.5,23-13.9,40.87-25.47,39.84s-18.91-20.53-16.43-43.55S617.81,1281,629.37,1282,648.32,1302.55,645.83,1325.6Z"/><path class="cls-40" d="M624.18,1285.22l-3.77-.33c-15.51-1.35-29.89,14.33-32.13,35l-.12,1.17c-2.24,20.69,8.51,38.59,24,40l3.77.34c7.83.7,16-15.79,18.3-36.84S632,1285.91,624.18,1285.22Z"/><path class="cls-41" d="M616,1322.37c-1.64,15.18-9.17,26.93-16.81,26.25s-12.5-13.53-10.86-28.7,9.16-26.93,16.8-26.26S617.59,1307.18,616,1322.37Z"/><path class="cls-42" d="M1739.91,1898.71a203.67,203.67,0,0,1,8.5-149.08l24.81-54.91a106.56,106.56,0,0,0,9.38-44.71v-30.84a39.31,39.31,0,0,0-17.53-33.19l-104-68.74a150.8,150.8,0,0,1-62.11-84.25c-10-34.56-24-80.46-38.94-120-17.66-46.67-61.2-78.56-111.57-81.77l-35.35-2.26c-70-4.46-131.7,47-139.8,116.14-7.65,65.3-20.21,140.47-40,183.52A216.77,216.77,0,0,0,1217,1659.89c26.47,140.26,63.68,333.94,41.3,381.64,322,35.35,529.2,1.4,529.2,1.4Zm-345.54-337.45-63,.72s7.61-42.75,15.73-82.16,39.11-53.35,42.17-53.4l11.7-.18Zm85.19-.76-23.51-132.69c49.61,1.26,87.56,137,89.1,137.51S1479.56,1560.5,1479.56,1560.5Z"/><path class="cls-43" d="M1760.7,1898.67a203.63,203.63,0,0,1,8.5-149.16l25-54.93a106.65,106.65,0,0,0,9.55-44.72V1619a39.51,39.51,0,0,0-17.71-33.22L1681.79,1517a151,151,0,0,1-62.22-84.31c-10-34.58-24-80.5-39-120.07-17.68-46.69-61.29-78.61-111.72-81.82l-35.39-2.26c-70.07-4.47-131.87,47-140,116.21-7.65,65.33-20.23,140.55-40.07,183.63a216.93,216.93,0,0,0-16.25,131.34c26.5,140.35,63.76,334.15,41.35,381.87,322.44,35.38,529.85,1.41,529.85,1.41Zm-346-337.65-63.06.73s7.62-42.77,15.75-82.21,39.16-53.39,42.22-53.43l11.71-.19Zm85.29-.76-23.54-132.77c49.67,1.26,87.66,137.1,89.2,137.59S1500,1560.26,1500,1560.26Z"/><path class="cls-44" d="M1478.66,1805.1c-23.92,10.45-56.31,24.83-100,23.52-27.8-.83-43-1.29-52.93-10.78-33.11-31.61,24.5-135.22,141.08-341.16,37.28-65.86,61.79-105.52,111-124.14,55.83-21.14,109.53-2.31,129.25,4.61,13.91,4.88,126.92,46.54,148,153.89,17.23,87.72-33.85,184-127.43,229.36L1711,1716.88c8.56-13.79,25-44.52,25.49-86.26.5-44.73-17.41-97.68-32.35-97-23.82,1,4.24,136.29-77.44,208.78C1613.45,1754.1,1621.71,1742.57,1478.66,1805.1Z"/><path class="cls-45" d="M1812.91,1575.73c-5.14-35.82-21.1-147.22-90.18-174.47-54.16-21.38-107.73,22.09-133.3-4.91-10.35-10.92-11.21-28.19-8.73-44.85-1,.35-1.93.67-2.9,1-49.18,18.62-73.69,58.28-111,124.14-116.58,205.94-174.19,309.55-141.08,341.16,9.94,9.49,25.13,10,52.93,10.78,43.67,1.31,76.06-13.07,100-23.52,143-62.53,134.79-51,148-62.74,81.68-72.49,53.62-207.75,77.44-208.78,14.94-.64,32.85,52.31,32.35,97-.47,41.74-16.93,72.47-25.49,86.26l16.66,23.52a241.44,241.44,0,0,0,85.23-68.42A340.68,340.68,0,0,0,1812.91,1575.73Z"/><polygon class="cls-8" points="1042.1 1768.3 1960.64 1697.57 2690.57 1753.95 1766.35 1831.73 1042.1 1768.3"/><polygon class="cls-46" points="1766.35 1831.73 1042.1 1768.3 1042.1 1798.94 1766.35 1862.37 2690.57 1784.58 2690.57 1753.95 1766.35 1831.73"/><polygon class="cls-47" points="2690.56 1784.58 2687.23 1794.87 2504.18 2359.55 756.27 2597.82 725.57 2601.99 726.01 2598.22 726.85 2591.52 806.69 1931.39 2690.56 1784.58"/><polygon class="cls-48" points="806.71 1931.36 725.57 2600.81 713.08 2598.36 120.01 2481.61 8.74 1892.97 2.17 1858.18 806.71 1931.36"/><polygon class="cls-8" points="2.19 1837.71 2005.89 1697.57 2690.57 1753.95 813.7 1908.77 2.19 1837.71"/><polygon class="cls-46" points="813.7 1908.78 2.19 1837.7 2.19 1872.03 813.7 1943.1 2690.57 1784.58 2690.57 1753.95 813.7 1908.78"/><polygon class="cls-49" points="433.55 1817.18 437.18 1828.91 587.35 1858.18 974.22 1799.83 974.22 1787.63 433.55 1817.18"/><polygon class="cls-50" points="433.3 1817.18 585.29 1845.46 973.98 1788.57 907.1 1766.99 433.3 1817.18"/><path class="cls-51" d="M717.68,1802.5,715.38,1427c0-6.29,5.07-10.82,12.34-10.92l489.26-6.53c4.09-.06,11.92,3.42,15,6.39s6.6,3.53,6.45,7.33l-17.74,326.13c-.28,5.16-4.47,9.17-10.23,9.79L729.16,1811.5Z"/><path class="cls-52" d="M729.16,1811.5l-.77-376.82c0-6.26,5.08-10.76,12.3-10.86l487.1-7a16.36,16.36,0,0,1,11.32,4.59,14.27,14.27,0,0,1,4.63,10.66l-12.93,323c-.21,5.28-4.52,9.39-10.43,10Z"/><path class="cls-53" d="M729.16,1811.5,1220.38,1765c5.91-.56,10.22-4.67,10.43-10l3.77-94c-139.77,58.82-325,53.52-505.59,69.43Z"/><path class="cls-8" d="M995.34,1862.34l-17.49,5.3-95.94-29.23c-.8-.25-5.4-3-2.7-4,15.44-5.78,107.2-11.11,107.2-11.11l66.71,6.85Z"/><path class="cls-54" d="M994.09,1858.11l-17.68,5.63-97.2-29.35c-5.06-1.54,104.83-12.77,104.83-12.77l68.71,2.45Z"/><path class="cls-55" d="M1068.11,1605.78s46,219.6,50.4,231.52c4,10.93-108.15,28.41-136,31-2.33.21-5.89-1.23-7-1.82-8.09-.45,18.24-255.87,18.24-255.87l2.82,0Z"/><path class="cls-56" d="M1067.17,1605.78s51.49,227.81,55.75,240-128.28,22.76-140.1,22.47c-7.68-.81,13.38-257.49,13.38-257.49Z"/><path class="cls-57" d="M383.22,1795.82s11.65-14.7,39.32-16.6,71.7,16.49,80.39,29.66.4,21.22-10.78,20.64-26.56-16-47.43-19.25S382.12,1838,383.22,1795.82Z"/><path class="cls-58" d="M1447.77,1720.86l15.78-6.52s-88.21-89.3,77.24-271.39c0,0,81.49-104.42,41-95.35-52.53,11.74-138.42,36.85-217.68,145S1330.26,1695.48,1447.77,1720.86Z"/><path class="cls-59" d="M1682.48,1355.22a13.9,13.9,0,0,1-2.76-19l12.62-17.82-13.17-24.34-46.34,34.69a94.67,94.67,0,0,1-41.84,17.71l-7.69,1.22s44.64,24.22,67.53,32,50.09-10,50.09-10Z"/><path class="cls-60" d="M1735.9,1246.3l3-.61c12.39-2.52,25.18,9,28.58,25.71l.19.94c3.4,16.71-3.88,32.3-16.27,34.82l-3,.61c-6.25,1.27-14.11-11.46-17.57-28.43S1729.65,1247.57,1735.9,1246.3Z"/><path class="cls-61" d="M1723.78,1280.77c3.77,18.58,14.07,32.17,23.3,30.3s13.89-18.51,10.12-37.09-14.57-32.07-23.8-30.19S1720,1262.2,1723.78,1280.77Z"/><rect class="cls-62" x="1737.16" y="1243.36" width="3.6" height="68.66" transform="translate(-219.71 372.12) rotate(-11.49)"/><ellipse class="cls-63" cx="1737.2" cy="1278.04" rx="17.05" ry="34.33" transform="translate(-219.84 371.82) rotate(-11.49)"/><path class="cls-64" d="M1728.11,1279.89c2.06,10.1,7.79,17.47,12.81,16.45s7.42-10,5.37-20.14-7.79-17.47-12.81-16.45S1726.06,1269.79,1728.11,1279.89Z"/><path class="cls-65" d="M1699,1320.75a92.9,92.9,0,0,1-26.47,3.34c-11.53-.18-32.54-.7-46.2-15.41a35.29,35.29,0,0,1-9.5-18.25c-.47-2.77-2.18-12.85,3.43-20.59,6.06-8.35,13.71-4.42,21.08-11.76,10.49-10.45,2.07-25.46,10.78-31.37,7.67-5.21,15.44,5.61,32.35,2,9.19-2,9.15-5.67,21.56-8.82,8.24-2.09,18.61-4.72,24.12.32,5.32,4.86.43,11.68,5.61,21.42s12.79,7.84,16.62,15.14c7.09,13.53-9.21,38.73-26.68,51.56C1714.92,1316.17,1703.6,1319.45,1699,1320.75Z"/><path class="cls-66" d="M1672.3,1321.89a48.08,48.08,0,0,0,44.11,18.84c26.4-2.74,30.93-57.74,14.25-68.67-5.57-3.65-16.81-4.79-26-2-5.43,1.63-7.29,3.79-16.22,6.29-8.24,2.32-10.55,1.57-13.06,3.61-3.13,2.54-5.48,8.57-.51,24.41-5-4.52-11-6.08-15.35-4a9.56,9.56,0,0,0-3.58,3.33C1652.14,1310.08,1658.24,1317.84,1672.3,1321.89Z"/><path class="cls-67" d="M1661.89,1272.05l-3.83.74-2.32-11.84c-4-20.42,6.76-40,24.49-44.54l19-4.88c9.92-2.55,20.26-.42,29.12,6a44.78,44.78,0,0,1,17.33,27.63l1.28,6.26-4.51-2.55-.59-2.93a40.15,40.15,0,0,0-15.51-24.73c-7.93-5.74-17.19-7.64-26.06-5.36l-19,4.88c-15.72,4-25.26,21.38-21.72,39.49Z"/><path class="cls-68" d="M1730.68,1227.45a5.52,5.52,0,0,1-4.67-1.26c-7.24-6-16.24-8.21-24.69-6l-19,4.88a25.15,25.15,0,0,0-15.76,12.62,5.38,5.38,0,0,1-8.08,1.82,7.33,7.33,0,0,1-2-9.2c5.1-9.27,13.16-15.72,22.71-18.18l19-4.87c11.83-3,24.41,0,34.53,8.44a7.32,7.32,0,0,1,1.51,9.3A5.48,5.48,0,0,1,1730.68,1227.45Z"/><path class="cls-69" d="M1719.9,1215.83c-15.06-1.8-16-6.07-23.45-4.9-13.91,2.19-16.48,18.06-30.3,18.85a20.77,20.77,0,0,1-8.55-1.43c-.39.62-.77,1.26-1.13,1.92a7.33,7.33,0,0,0,2,9.2,5.38,5.38,0,0,0,8.08-1.82,25.15,25.15,0,0,1,15.76-12.62l19-4.88c8.45-2.17,17.45,0,24.69,6a5.38,5.38,0,0,0,8.19-1.23,7.34,7.34,0,0,0-.81-8.62A84.84,84.84,0,0,1,1719.9,1215.83Z"/><ellipse class="cls-70" cx="1664.82" cy="1292.19" rx="17.24" ry="34.71" transform="translate(-224.12 357.68) rotate(-11.49)"/><path class="cls-71" d="M1678.39,1289.43c3.82,18.78-.64,35.54-10,37.44s-20-11.79-23.81-30.57.65-35.55,10-37.45S1674.57,1270.64,1678.39,1289.43Z"/><path class="cls-72" d="M1651.31,1262.58l-3,.61c-12.52,2.55-19.88,18.31-16.45,35.21l.2.95c3.43,16.9,16.37,28.54,28.89,26l3-.62c6.32-1.28,8.61-16.24,5.12-33.4S1657.62,1261.29,1651.31,1262.58Z"/><path class="cls-73" d="M1654.16,1293.86c2.51,12.39-.44,23.44-6.61,24.7s-13.22-7.77-15.74-20.16.44-23.44,6.61-24.7S1651.64,1281.47,1654.16,1293.86Z"/><polygon class="cls-74" points="1488.06 1735.33 1490.12 1745.8 1625.91 1771.92 1972.95 1719.84 1972.95 1708.96 1488.06 1735.33"/><polygon class="cls-75" points="1485.47 1735.33 1621.12 1760.57 1968.01 1709.79 1908.33 1690.54 1485.47 1735.33"/><path class="cls-76" d="M1433.92,1712.61s10.4-13.13,35.09-14.82,64,14.71,71.75,26.46.36,19-9.62,18.43-23.71-14.24-42.33-17.18S1432.94,1750.27,1433.92,1712.61Z"/><path class="cls-77" d="M1732.53,1718.48l-2.17-335c0-5.62,4.78-9.66,11.6-9.75l437.25-5.83c3.47,0,10.12,2.9,12.76,5.42s5.6,3,5.47,6.21l-15.05,276.62c-.24,4.38-3.81,7.9-8.71,8.6l-430.37,61.36Z"/><path class="cls-78" d="M1743.27,1726.12l-.68-335.85c0-5.58,4.52-9.6,10.93-9.69l434.13-6.58a14.61,14.61,0,0,1,10.12,4.09,12.78,12.78,0,0,1,4.14,9.53l-11.56,288.7c-.18,4.71-4,8.38-9.32,8.88Z"/><path class="cls-79" d="M1743.27,1726.12,2181,1685.2c5.28-.5,9.14-4.17,9.32-8.88l3.37-84c-124.8,52.45-289.95,47.58-450.59,61.61Z"/><path class="cls-8" d="M1980.22,1772l-15.61,4.73L1879,1750.61c-.72-.22-4.83-2.69-2.41-3.59,13.77-5.16,95.67-9.91,95.67-9.91l59.54,6.11Z"/><path class="cls-80" d="M1979.11,1768.19l-15.79,5-86.74-26.2c-4.52-1.37,93.55-11.39,93.55-11.39l61.32,2.18Z"/><path class="cls-81" d="M2045.16,1543s41.09,196,45,206.62c3.58,9.76-96.52,25.36-121.34,27.69-2.08.2-5.26-1.09-6.27-1.62-7.22-.4,16.28-228.35,16.28-228.35l2.52,0Z"/><path class="cls-82" d="M2044.32,1543s46,203.31,49.76,214.23-114.49,20.31-125,20c-6.86-.73,11.94-229.8,11.94-229.8Z"/><path class="cls-83" d="M2687.23,1794.87l-183.05,564.68L756.27,2597.82c-12.86.18-23,.29-30.26.4-8.5.07-12.93.15-12.93.15l13.77-6.85c13.67-7,27.34-14.07,40.89-21.22a3612.39,3612.39,0,0,0,333.93-198.87c150-100.51,294.1-156.31,477.34-161.51,156-4.43,320.18-.48,465.42-65,66.61-29.6,130.51-80.16,188.62-123.22C2364.47,1924.35,2518.07,1815,2687.23,1794.87Z"/><path class="cls-84" d="M2317.84,2429.63l.66-.05c35.94-2.38,78.51-16.17,101.32-45.66,12-15.54,18.38-33.87,17.12-53.56-.75-11.68-2.48-23.79-6.83-34.72-4.55-11.45-11.76-21.86-20-30.92a168.32,168.32,0,0,0-14.88-14.25c-14.94-12.73-46.88-28.12-39.32-52.73,4.57-14.88,20.17-27,29.6-38.82,20.14-25.34,31.36-57.8,24.19-90.3-5.62-25.54-27.37-47.12-49.32-60.15-89.31-53-62.64-185.28-164.42-152.12s-100.64,142-39.6,230c20.44,29.45,43.87,59,60.46,90.83,13.06,25.08,7.42,45.78-10.7,66.5-9.75,11.15-25.51,20.83-33.38,33.14-17.58,27.5-28.61,62.94-15.71,94.44,12.78,31.25,45.92,48.79,77.91,54.46C2262.57,2430.6,2289.86,2431.47,2317.84,2429.63Z"/><g class="cls-85"><path class="cls-8" d="M2323.71,2399a2.12,2.12,0,0,0,.7-.29,2.19,2.19,0,0,0,.65-3c-.71-1.11-71.24-111.51-55.54-216.48,16-106.69-50.86-201.74-51.53-202.68a2.19,2.19,0,0,0-3.57,2.54c.67.94,66.45,94.59,50.77,199.49-16,106.63,55.47,218.39,56.19,219.51A2.2,2.2,0,0,0,2323.71,2399Z"/></g><path class="cls-86" d="M2262.6,2231a372,372,0,0,1,24.56-54.61c31.59-57.7,49.82-115.44,54.9-181.25,4-51.84-9-107.1-11-159.21-1.5-37.76,2.75-75.6,7.62-113,10.36-79.61,31.63-174.08,89.91-233.78,27-27.64,73.45-40.37,111.69-33.72,49.54,8.62,97.95,36.4,112.57,87,20.1,69.67-23.47,162.85,42.33,216.1,100.75,81.54,89.47,200.27-5.5,278.82-31,25.59-68.2,51.27-91.25,85s4.93,76.11,16,109.72c10.42,31.54,22.34,68.23,8.09,100.49-24,54.42-103.11,93.81-156.47,110.83-51.64,16.47-112.79,24.32-159.29-9.41C2236.69,2383.22,2237.36,2302.61,2262.6,2231Z"/><g class="cls-85"><path class="cls-8" d="M2394.48,2413.76a2.63,2.63,0,0,0,2-2.22c.68-4.91,68.31-493,124.1-696.29a2.65,2.65,0,1,0-5.12-1.4c-55.88,203.56-123.56,692.05-124.24,697a2.65,2.65,0,0,0,2.27,3A2.51,2.51,0,0,0,2394.48,2413.76Z"/></g><path class="cls-87" d="M2562,2438.89c-10.72,4.79-21.54,9.34-32.29,13.91-30.06,12.77-69.22,25.52-96.94.45-7.9-7.14-13.42-25.27-18.07-34.93a269.85,269.85,0,0,1-12.72-30.18,166.68,166.68,0,0,1-8.38-44c-1.55-26.08,1.44-48.31,21.3-66.92,14.49-13.56,32.3-25.8,49.41-35.78,93.3-54.44,83.83-94.47,89.77-196.45s408-195.71,287.26,54.66c0,0-17.73,38.31-135.13,94.31-21.47,10.24-47.75,24.59-56.58,48.19-15.58,41.63,44.9,71.1,26.61,109.06-10.66,22.14-36.92,43.18-56.67,56.68C2601.54,2420.21,2582,2430,2562,2438.89Z"/><g class="cls-85"><path class="cls-8" d="M2477.31,2439.52a2.65,2.65,0,0,0,1.24-2.07c.08-1.16,8.51-116.19,78.95-186.34,27.55-27.45,45.09-61.14,62.06-93.73,28.6-54.94,55.63-106.84,126.81-133.62a2.66,2.66,0,1,0-1.87-5c-73.09,27.49-101.84,82.73-129.65,136.14-16.78,32.23-34.13,65.55-61.1,92.41-71.87,71.6-80.42,188.58-80.5,189.76a2.65,2.65,0,0,0,4.06,2.42Z"/></g><path class="cls-48" d="M1877.9,2132.67c0-121.1-99.26-218.71-228.54-214.17-137.5,4.83-248.47,121.59-240,256.05,8.16,129.77,124.74,216.2,253.49,198.1C1784.33,2355.57,1877.9,2250,1877.9,2132.67Z"/><path class="cls-8" d="M1865.45,2133.78c-.19-114.18-94-205.73-215.67-201.06-128.88,5-232.74,114.48-225.07,240.46,7.41,121.85,116.59,203.51,237.75,186.83C1777.18,2344.22,1865.64,2244.58,1865.45,2133.78Z"/><path class="cls-88" d="M1544.2,2082.58l5,100.5c8.85,49.52,70.06,82.54,96.13,94.45,7.42,3.39,16.7,2,23.76-3.54,24.27-19,77.76-65.8,82.74-113.63l-1.06-93.87C1749.61,1995.34,1540.81,2006.19,1544.2,2082.58Z"/><path class="cls-8" d="M1779.36,2184.21c-82.94-2.65-169,6.81-255.27,28.5q-7.75-39.23-15.63-79.11c95.1-23,189.79-32.31,280.82-28.24Q1784.29,2145,1779.36,2184.21Z"/><path class="cls-89" d="M1521.16,2217.09l-17.08-86.16,3.67-.89a1057.65,1057.65,0,0,1,143.46-24.38,967.43,967.43,0,0,1,138.51-3.83l3.42.15-10.82,85.81-3.39-.1a884.86,884.86,0,0,0-125.09,5.08,966.15,966.15,0,0,0-129.06,23.41Zm-8.34-80.81,14.2,72.06a972.92,972.92,0,0,1,126.61-22.61,896,896,0,0,1,122.77-5.1l9-71.88a965.17,965.17,0,0,0-134,4.09A1050.64,1050.64,0,0,0,1512.82,2136.28Z"/></g></g></g></svg>